<svg xmlns="http://www.w3.org/2000/svg" width="79.202" height="74.821" viewBox="0 0 79.202 74.821"><defs><style>.a{fill:#fae88b;}.b{fill:#f7f2f0;}.c{fill:#f1e9e6;}.d{fill:#f7d348;}</style></defs><g transform="translate(-0.001 -13.721)"><path class="a" d="M41.255,39.049A21.048,21.048,0,0,0,23.713,16.168a1.28,1.28,0,0,0-1.278,1.951A15.985,15.985,0,0,1,24.953,27.4a16.052,16.052,0,0,1-23.1,13.784,1.284,1.284,0,0,0-1.8,1.5A21.088,21.088,0,0,0,15.108,57.345l14.545,2.264,7.413-5.716Z" transform="translate(0 -2.042)"/><path class="b" d="M136.938,152.192a21.316,21.316,0,1,0-20.456-27.326,14.74,14.74,0,1,0-7.672,27.326Z" transform="translate(-79.051 -80.537)"/><path class="c" d="M100.881,143.967a14.748,14.748,0,0,1,20.025-13.459,2.611,2.611,0,0,0,3.321-1.4,21.325,21.325,0,0,1,30.811-9.5,21.322,21.322,0,0,0-38.557,5.255,14.741,14.741,0,1,0-14.127,25.841A14.7,14.7,0,0,1,100.881,143.967Z" transform="translate(-79.052 -80.536)"/><path class="d" d="M77.507,94.293a8.045,8.045,0,0,1-2.026-2.012.983.983,0,0,0-1.591-.043,10.176,10.176,0,0,1-2.015,1.973.993.993,0,0,0,.033,1.623,7.61,7.61,0,0,1,2.01,1.978.982.982,0,0,0,1.6.009,8.344,8.344,0,0,1,1.992-1.91A.985.985,0,0,0,77.507,94.293Z" transform="translate(-60.059 -65.658)"/><g transform="translate(12.827 13.721)"><path class="d" d="M81.531,20.276a1.2,1.2,0,0,1-1.2-1.2V14.918a1.2,1.2,0,0,1,2.395,0v4.161A1.2,1.2,0,0,1,81.531,20.276Z" transform="translate(-80.334 -13.721)"/></g><g transform="translate(10.746 15.801)"><path class="d" d="M72.661,29.146H68.5a1.2,1.2,0,0,1,0-2.395h4.161a1.2,1.2,0,0,1,0,2.395Z" transform="translate(-67.303 -26.751)"/></g><g transform="translate(2.607 26.43)"><path class="d" d="M17.517,99.881a1.2,1.2,0,0,1-1.2-1.2V94.522a1.2,1.2,0,0,1,2.395,0v4.161A1.2,1.2,0,0,1,17.517,99.881Z" transform="translate(-16.32 -93.325)"/></g><g transform="translate(0.526 28.51)"><path class="d" d="M8.647,108.751H4.486a1.2,1.2,0,1,1,0-2.395H8.647a1.2,1.2,0,1,1,0,2.395Z" transform="translate(-3.289 -106.356)"/></g><path class="a" d="M212.313,351.12,194.121,359.8a.506.506,0,0,0-.076.869l3.942,2.816a.506.506,0,0,1,.057.777l-7.18,6.9a.506.506,0,0,0,.484.854l19.051-5.2a.506.506,0,0,0,.165-.9l-4.4-3.206a.506.506,0,0,1-.12-.694l6.9-10.157A.506.506,0,0,0,212.313,351.12Z" transform="translate(-160.258 -283.489)"/></g></svg>