<svg xmlns="http://www.w3.org/2000/svg" width="74.585" height="77" viewBox="0 0 74.585 77"><defs><style>.a{fill:#f7f2f0;}.b{fill:#f1e9e6;}.c{fill:#85d6e4;}</style></defs><g transform="translate(-7.832)"><path class="a" d="M57.646,49.542A24.771,24.771,0,1,0,33.875,17.788,17.128,17.128,0,1,0,24.96,49.543H57.646Z" transform="translate(0 0)"/><path class="b" d="M15.746,39.986a17.138,17.138,0,0,1,23.27-15.641,3.034,3.034,0,0,0,3.86-1.624,24.781,24.781,0,0,1,35.8-11.04,24.778,24.778,0,0,0-44.806,6.107A17.13,17.13,0,1,0,17.459,47.817a17.074,17.074,0,0,1-1.713-7.83Z" transform="translate(-0.001)"/><path class="b" d="M224.167,204.605a12.2,12.2,0,0,0-8.363,2.89,1.183,1.183,0,0,1-.979.257,9.753,9.753,0,0,0-11.228,7.316,1.168,1.168,0,0,1-1.441.844,6.7,6.7,0,1,0-1.682,13.188h23.241a12.252,12.252,0,0,0,.452-24.5Z" transform="translate(-157.28 -173.06)"/><g transform="translate(30.3 60.859)"><path class="c" d="M154.752,410.969a1.156,1.156,0,0,1-1-1.736l8.021-13.829a1.156,1.156,0,1,1,2,1.16l-8.021,13.829A1.156,1.156,0,0,1,154.752,410.969Z" transform="translate(-153.597 -394.828)"/></g><g transform="translate(42.331 60.859)"><path class="c" d="M232.8,404.055a1.156,1.156,0,0,1-1-1.736l4.01-6.914a1.156,1.156,0,1,1,2,1.16l-4.01,6.914A1.155,1.155,0,0,1,232.8,404.055Z" transform="translate(-231.649 -394.828)"/></g><g transform="translate(46.341 60.859)"><path class="c" d="M258.822,410.969a1.156,1.156,0,0,1-1-1.736l8.021-13.829a1.156,1.156,0,1,1,2,1.16l-8.021,13.829A1.155,1.155,0,0,1,258.822,410.969Z" transform="translate(-257.667 -394.828)"/></g><g transform="translate(54.362 70.323)"><path class="c" d="M310.857,462.907a1.157,1.157,0,0,1-1-1.736l2.531-4.364a1.156,1.156,0,0,1,2,1.16l-2.531,4.364A1.155,1.155,0,0,1,310.857,462.907Z" transform="translate(-309.702 -456.231)"/></g><g transform="translate(60.236 60.859)"><path class="c" d="M348.964,400.842a1.156,1.156,0,0,1-1-1.736l2.147-3.7a1.156,1.156,0,1,1,2,1.16l-2.147,3.7A1.155,1.155,0,0,1,348.964,400.842Z" transform="translate(-347.809 -394.828)"/></g><g transform="translate(62.383 60.859)"><path class="c" d="M362.892,410.969a1.156,1.156,0,0,1-1-1.736l8.021-13.829a1.156,1.156,0,1,1,2,1.16l-8.021,13.829A1.156,1.156,0,0,1,362.892,410.969Z" transform="translate(-361.737 -394.828)"/></g></g></svg>