<svg xmlns="http://www.w3.org/2000/svg" width="71.13" height="70" viewBox="0 0 71.13 70"><defs><style>.a{fill:#fdb441;}.b{fill:#f9dd58;}.c{fill:#f7d348;}.d{fill:#fae88b;}.e{fill:#fef0ae;}</style></defs><g transform="translate(0 -3.957)"><path class="a" d="M36.139,73.017l4.583.885a3.027,3.027,0,0,0,2.107-.362l3.916-2.3a3.028,3.028,0,0,1,1.041-.377l4.451-.734a3.027,3.027,0,0,0,1.843-1.061l3.006-3.647a3.025,3.025,0,0,1,.9-.741l3.85-2.069a3.026,3.026,0,0,0,1.409-1.624l1.642-4.477a3.025,3.025,0,0,1,.53-.912L68.4,52.072a3.027,3.027,0,0,0,.715-1.954V45.444a3.027,3.027,0,0,1,.192-1.061l1.633-4.366a3.027,3.027,0,0,0,0-2.121L69.3,33.53a3.026,3.026,0,0,1-.192-1.061V27.8a3.027,3.027,0,0,0-.715-1.954l-2.979-3.526a3.028,3.028,0,0,1-.53-.912l-1.642-4.477A3.027,3.027,0,0,0,61.838,15.3l-3.85-2.069a3.027,3.027,0,0,1-.9-.741L54.08,8.846a3.027,3.027,0,0,0-1.843-1.061l-4.451-.734a3.024,3.024,0,0,1-1.041-.377l-3.916-2.3a3.027,3.027,0,0,0-2.107-.362L36.139,4.9a3.029,3.029,0,0,1-1.147,0l-4.583-.885a3.027,3.027,0,0,0-2.107.362l-3.916,2.3a3.028,3.028,0,0,1-1.041.377l-4.451.734A3.027,3.027,0,0,0,17.05,8.846l-3.006,3.647a3.025,3.025,0,0,1-.9.741L9.292,15.3a3.026,3.026,0,0,0-1.409,1.624L6.241,21.4a3.025,3.025,0,0,1-.53.912L2.732,25.842A3.027,3.027,0,0,0,2.017,27.8V32.47a3.027,3.027,0,0,1-.192,1.061L.192,37.9a3.026,3.026,0,0,0,0,2.121l1.633,4.366a3.026,3.026,0,0,1,.192,1.061v4.674a3.027,3.027,0,0,0,.715,1.954L5.711,55.6a3.028,3.028,0,0,1,.53.912l1.642,4.477a3.027,3.027,0,0,0,1.409,1.624l3.85,2.069a3.027,3.027,0,0,1,.9.741l3.006,3.647a3.027,3.027,0,0,0,1.843,1.061l4.451.734a3.026,3.026,0,0,1,1.041.377l3.916,2.3a3.027,3.027,0,0,0,2.107.362l4.583-.885a3.025,3.025,0,0,1,1.147,0Z" transform="translate(0)"/><circle class="b" cx="29.046" cy="29.046" r="29.046" transform="translate(6.591 9.911)"/><path class="c" d="M55.96,74.7A29.058,29.058,0,0,1,80.108,46.07a29.046,29.046,0,1,0,0,57.268A29.057,29.057,0,0,1,55.96,74.7Z" transform="translate(-39.566 -35.747)"/><circle class="d" cx="24.762" cy="24.762" r="24.762" transform="translate(10.874 14.195)"/><g transform="translate(10.874 15.159)"><path class="b" d="M94.066,82.412a24.765,24.765,0,0,0,0,47.595,29.048,29.048,0,0,1,0-47.595Z" transform="translate(-76.157 -82.412)"/><ellipse class="b" cx="4.634" cy="4.055" rx="4.634" ry="4.055" transform="translate(12.718 6.981)"/><ellipse class="b" cx="2.85" cy="2.494" rx="2.85" ry="2.494" transform="translate(9.868 21.161)"/><ellipse class="b" cx="4.315" cy="3.776" rx="4.315" ry="3.776" transform="translate(30.824 31.612)"/></g><path class="e" d="M321.41,180.815a4.644,4.644,0,0,1-2.1,2.058.622.622,0,0,0-.042,1.09,5.73,5.73,0,0,1,2.09,2.148.624.624,0,0,0,1.088,0,5.573,5.573,0,0,1,2.139-2.176.625.625,0,0,0-.014-1.094,5.2,5.2,0,0,1-2.056-2.056A.626.626,0,0,0,321.41,180.815Z" transform="translate(-273.421 -151.31)"/><path class="e" d="M109.307,326.652a5.463,5.463,0,0,1-2.47,2.42.732.732,0,0,0-.049,1.282,6.739,6.739,0,0,1,2.458,2.525.733.733,0,0,0,1.279.006,6.555,6.555,0,0,1,2.516-2.559.735.735,0,0,0-.017-1.287,6.118,6.118,0,0,1-2.418-2.418A.736.736,0,0,0,109.307,326.652Z" transform="translate(-91.235 -276.271)"/></g></svg>