<svg xmlns="http://www.w3.org/2000/svg" width="93.437" height="89" viewBox="0 0 93.437 89"><defs><style>.a{fill:#fdb441;}.b{fill:#fedf30;}.c{fill:#fed402;}.d{fill:#a6e7f0;}.e{fill:#d4f2f6;}.f{fill:#fedba6;}.g{fill:#fec165;}.h{fill:#fdb97e;}.i{fill:#fff;}.j{fill:#6bd9e7;}</style></defs><g transform="translate(0 -12.149)"><path class="a" d="M126.382,132.433a36.405,36.405,0,1,0-67.5,0h67.5Z" transform="translate(-45.96 -57.408)"/><path class="b" d="M150.425,164.31a29.284,29.284,0,1,0-51.828,0Z" transform="translate(-77.838 -89.285)"/><path class="c" d="M129.2,121.755a29.313,29.313,0,0,0-33.972,28.911A29.152,29.152,0,0,0,98.6,164.311h9.373a29.295,29.295,0,0,1,21.23-42.557Z" transform="translate(-77.838 -89.286)"/><g transform="translate(12.116 80.28)"><path class="d" d="M88.741,387.989H67.72a1.37,1.37,0,0,1,0-2.739H88.741a1.37,1.37,0,0,1,0,2.739Z" transform="translate(-66.35 -385.25)"/></g><g transform="translate(57.652 80.28)"><path class="d" d="M338.1,387.989H317.084a1.37,1.37,0,1,1,0-2.739H338.1a1.37,1.37,0,0,1,0,2.739Z" transform="translate(-315.714 -385.25)"/></g><g transform="translate(30.971 89.345)"><path class="d" d="M199.728,437.63H170.972a1.37,1.37,0,1,1,0-2.739h28.757a1.37,1.37,0,1,1,0,2.739Z" transform="translate(-169.602 -434.891)"/></g><g transform="translate(40.761 98.41)"><path class="e" d="M233.76,487.27h-9.176a1.37,1.37,0,1,1,0-2.739h9.176a1.37,1.37,0,0,1,0,2.739Z" transform="translate(-223.214 -484.531)"/></g><g transform="translate(45.395 12.149)"><path class="f" d="M249.96,20.1a1.369,1.369,0,0,1-1.37-1.37V13.519a1.37,1.37,0,0,1,2.739,0v5.211A1.369,1.369,0,0,1,249.96,20.1Z" transform="translate(-248.59 -12.149)"/></g><g transform="translate(0.26 57.284)"><path class="f" d="M6.76,262.055H2.793a1.37,1.37,0,1,1,0-2.739H6.76a1.37,1.37,0,1,1,0,2.739Z" transform="translate(-1.423 -259.316)"/></g><g transform="translate(86.562 57.284)"><path class="f" d="M479.368,262.055H475.4a1.37,1.37,0,1,1,0-2.739h3.967a1.37,1.37,0,1,1,0,2.739Z" transform="translate(-474.031 -259.316)"/></g><g transform="translate(26.812 15.751)"><path class="f" d="M150.325,39.362a1.37,1.37,0,0,1-1.251-.811L146.95,33.8a1.369,1.369,0,0,1,2.5-1.118l2.125,4.749a1.37,1.37,0,0,1-1.249,1.929Z" transform="translate(-146.83 -31.873)"/></g><g transform="translate(4.176 38.013)"><path class="f" d="M27.829,158.2a1.366,1.366,0,0,1-.579-.129L23.661,156.4a1.37,1.37,0,1,1,1.16-2.481l3.589,1.678a1.37,1.37,0,0,1-.581,2.611Z" transform="translate(-22.871 -153.786)"/></g><g transform="translate(7.741 19.298)"><path class="g" d="M52.175,62.527a1.364,1.364,0,0,1-.973-.405l-8.416-8.49A1.369,1.369,0,0,1,44.731,51.7l8.416,8.49a1.37,1.37,0,0,1-.973,2.334Z" transform="translate(-42.389 -51.298)"/></g><g transform="translate(61.851 15.751)"><path class="f" d="M340.08,39.361a1.37,1.37,0,0,1-1.249-1.929l2.125-4.749a1.369,1.369,0,0,1,2.5,1.118l-2.125,4.749A1.369,1.369,0,0,1,340.08,39.361Z" transform="translate(-338.711 -31.873)"/></g><g transform="translate(83.023 38.013)"><path class="h" d="M456.022,158.2a1.37,1.37,0,0,1-.581-2.611l3.589-1.678a1.37,1.37,0,0,1,1.16,2.481l-3.589,1.678a1.365,1.365,0,0,1-.579.129Z" transform="translate(-454.651 -153.785)"/></g><g transform="translate(74.632 19.298)"><path class="g" d="M410.071,62.529a1.37,1.37,0,0,1-.973-2.334l8.416-8.49a1.369,1.369,0,1,1,1.945,1.928l-8.416,8.49A1.365,1.365,0,0,1,410.071,62.529Z" transform="translate(-408.702 -51.299)"/></g><g transform="translate(0 51.375)"><g transform="translate(35.855)"><path class="i" d="M216.787,240.657a1.194,1.194,0,0,1,.878,2l-7.335,7.947H204l-7.335-7.947a1.194,1.194,0,0,1,.878-2h4.987V228.039a1.084,1.084,0,0,1,1.083-1.083h6.921a1.084,1.084,0,0,1,1.083,1.083v12.618Z" transform="translate(-196.347 -226.956)"/></g><g transform="translate(0 22.282)"><path class="j" d="M92.067,351.715H1.37a1.37,1.37,0,0,1,0-2.739h90.7a1.37,1.37,0,0,1,0,2.739Z" transform="translate(0 -348.976)"/></g></g></g></svg>